<svg width="38" height="38" viewBox="0 0 38 38" fill="none" xmlns="http://www.w3.org/2000/svg">
<g filter="url(#filter0_d_1_169)">
<rect x="1" y="1" width="36" height="36" rx="12" fill="url(#paint0_linear_1_169)"/>
<path d="M18.3447 12.8761C18.3733 12.7231 18.4544 12.585 18.5741 12.4856C18.6938 12.3862 18.8445 12.3318 19.0001 12.3318C19.1556 12.3318 19.3063 12.3862 19.426 12.4856C19.5457 12.585 19.6268 12.7231 19.6554 12.8761L20.3561 16.5814C20.4058 16.8448 20.5338 17.0871 20.7234 17.2767C20.913 17.4663 21.1553 17.5943 21.4187 17.6441L25.1241 18.3447C25.277 18.3733 25.4151 18.4544 25.5145 18.5741C25.6139 18.6938 25.6683 18.8445 25.6683 19.0001C25.6683 19.1556 25.6139 19.3063 25.5145 19.426C25.4151 19.5457 25.277 19.6268 25.1241 19.6554L21.4187 20.3561C21.1553 20.4058 20.913 20.5338 20.7234 20.7234C20.5338 20.913 20.4058 21.1553 20.3561 21.4187L19.6554 25.1241C19.6268 25.277 19.5457 25.4151 19.426 25.5145C19.3063 25.6139 19.1556 25.6683 19.0001 25.6683C18.8445 25.6683 18.6938 25.6139 18.5741 25.5145C18.4544 25.4151 18.3733 25.277 18.3447 25.1241L17.6441 21.4187C17.5943 21.1553 17.4663 20.913 17.2767 20.7234C17.0871 20.5338 16.8448 20.4058 16.5814 20.3561L12.8761 19.6554C12.7231 19.6268 12.585 19.5457 12.4856 19.426C12.3862 19.3063 12.3318 19.1556 12.3318 19.0001C12.3318 18.8445 12.3862 18.6938 12.4856 18.5741C12.585 18.4544 12.7231 18.3733 12.8761 18.3447L16.5814 17.6441C16.8448 17.5943 17.0871 17.4663 17.2767 17.2767C17.4663 17.0871 17.5943 16.8448 17.6441 16.5814L18.3447 12.8761Z" stroke="white" stroke-width="1.33333" stroke-linecap="round" stroke-linejoin="round"/>
<path d="M24.3334 12.3333V14.9999" stroke="white" stroke-width="1.33333" stroke-linecap="round" stroke-linejoin="round"/>
<path d="M25.6667 13.6667H23" stroke="white" stroke-width="1.33333" stroke-linecap="round" stroke-linejoin="round"/>
<path d="M13.6667 25.6667C14.4031 25.6667 15 25.0697 15 24.3333C15 23.597 14.4031 23 13.6667 23C12.9303 23 12.3334 23.597 12.3334 24.3333C12.3334 25.0697 12.9303 25.6667 13.6667 25.6667Z" stroke="white" stroke-width="1.33333" stroke-linecap="round" stroke-linejoin="round"/>
</g>
<defs>
<filter id="filter0_d_1_169" x="0" y="0" width="38" height="38" filterUnits="userSpaceOnUse" color-interpolation-filters="sRGB">
<feFlood flood-opacity="0" result="BackgroundImageFix"/>
<feColorMatrix in="SourceAlpha" type="matrix" values="0 0 0 0 0 0 0 0 0 0 0 0 0 0 0 0 0 0 127 0" result="hardAlpha"/>
<feMorphology radius="1" operator="dilate" in="SourceAlpha" result="effect1_dropShadow_1_169"/>
<feOffset/>
<feComposite in2="hardAlpha" operator="out"/>
<feColorMatrix type="matrix" values="0 0 0 0 1 0 0 0 0 1 0 0 0 0 1 0 0 0 0.2 0"/>
<feBlend mode="normal" in2="BackgroundImageFix" result="effect1_dropShadow_1_169"/>
<feBlend mode="normal" in="SourceGraphic" in2="effect1_dropShadow_1_169" result="shape"/>
</filter>
<linearGradient id="paint0_linear_1_169" x1="1" y1="37" x2="37" y2="1" gradientUnits="userSpaceOnUse">
<stop stop-color="#6366F1"/>
<stop offset="0.5" stop-color="#8B5CF6"/>
<stop offset="1" stop-color="#FBBF24"/>
</linearGradient>
</defs>
</svg>
