<svg width="56" height="56" viewBox="0 0 56 56" fill="none" xmlns="http://www.w3.org/2000/svg">
<g filter="url(#filter0_ddd_1_5)">
<rect x="12" y="2" width="32" height="32" rx="12" fill="url(#paint0_linear_1_5)"/>
<path d="M27.3447 11.876C27.3733 11.7231 27.4544 11.5849 27.5741 11.4855C27.6938 11.3861 27.8445 11.3317 28.0001 11.3317C28.1556 11.3317 28.3063 11.3861 28.426 11.4855C28.5457 11.5849 28.6268 11.7231 28.6554 11.876L29.3561 15.5813C29.4058 15.8448 29.5338 16.0871 29.7234 16.2766C29.913 16.4662 30.1553 16.5942 30.4187 16.644L34.1241 17.3447C34.277 17.3732 34.4151 17.4544 34.5145 17.5741C34.6139 17.6937 34.6683 17.8444 34.6683 18C34.6683 18.1556 34.6139 18.3062 34.5145 18.4259C34.4151 18.5456 34.277 18.6268 34.1241 18.6553L30.4187 19.356C30.1553 19.4058 29.913 19.5338 29.7234 19.7234C29.5338 19.9129 29.4058 20.1552 29.3561 20.4187L28.6554 24.124C28.6268 24.2769 28.5457 24.4151 28.426 24.5145C28.3063 24.6138 28.1556 24.6683 28.0001 24.6683C27.8445 24.6683 27.6938 24.6138 27.5741 24.5145C27.4544 24.4151 27.3733 24.2769 27.3447 24.124L26.6441 20.4187C26.5943 20.1552 26.4663 19.9129 26.2767 19.7234C26.0871 19.5338 25.8448 19.4058 25.5814 19.356L21.8761 18.6553C21.7231 18.6268 21.585 18.5456 21.4856 18.4259C21.3862 18.3062 21.3318 18.1556 21.3318 18C21.3318 17.8444 21.3862 17.6937 21.4856 17.5741C21.585 17.4544 21.7231 17.3732 21.8761 17.3447L25.5814 16.644C25.8448 16.5942 26.0871 16.4662 26.2767 16.2766C26.4663 16.0871 26.5943 15.8448 26.6441 15.5813L27.3447 11.876Z" stroke="white" stroke-width="1.33333" stroke-linecap="round" stroke-linejoin="round"/>
<path d="M33.3334 11.3333V14" stroke="white" stroke-width="1.33333" stroke-linecap="round" stroke-linejoin="round"/>
<path d="M34.6667 12.6667H32" stroke="white" stroke-width="1.33333" stroke-linecap="round" stroke-linejoin="round"/>
<path d="M22.6667 24.6667C23.4031 24.6667 24 24.0697 24 23.3333C24 22.597 23.4031 22 22.6667 22C21.9303 22 21.3334 22.597 21.3334 23.3333C21.3334 24.0697 21.9303 24.6667 22.6667 24.6667Z" stroke="white" stroke-width="1.33333" stroke-linecap="round" stroke-linejoin="round"/>
</g>
<defs>
<filter id="filter0_ddd_1_5" x="0" y="0" width="56" height="56" filterUnits="userSpaceOnUse" color-interpolation-filters="sRGB">
<feFlood flood-opacity="0" result="BackgroundImageFix"/>
<feColorMatrix in="SourceAlpha" type="matrix" values="0 0 0 0 0 0 0 0 0 0 0 0 0 0 0 0 0 0 127 0" result="hardAlpha"/>
<feMorphology radius="4" operator="erode" in="SourceAlpha" result="effect1_dropShadow_1_5"/>
<feOffset dy="4"/>
<feGaussianBlur stdDeviation="3"/>
<feComposite in2="hardAlpha" operator="out"/>
<feColorMatrix type="matrix" values="0 0 0 0 0.388235 0 0 0 0 0.4 0 0 0 0 0.945098 0 0 0 0.2 0"/>
<feBlend mode="normal" in2="BackgroundImageFix" result="effect1_dropShadow_1_5"/>
<feColorMatrix in="SourceAlpha" type="matrix" values="0 0 0 0 0 0 0 0 0 0 0 0 0 0 0 0 0 0 127 0" result="hardAlpha"/>
<feMorphology radius="3" operator="erode" in="SourceAlpha" result="effect2_dropShadow_1_5"/>
<feOffset dy="10"/>
<feGaussianBlur stdDeviation="7.5"/>
<feComposite in2="hardAlpha" operator="out"/>
<feColorMatrix type="matrix" values="0 0 0 0 0.388235 0 0 0 0 0.4 0 0 0 0 0.945098 0 0 0 0.2 0"/>
<feBlend mode="normal" in2="effect1_dropShadow_1_5" result="effect2_dropShadow_1_5"/>
<feColorMatrix in="SourceAlpha" type="matrix" values="0 0 0 0 0 0 0 0 0 0 0 0 0 0 0 0 0 0 127 0" result="hardAlpha"/>
<feMorphology radius="1" operator="dilate" in="SourceAlpha" result="effect3_dropShadow_1_5"/>
<feOffset/>
<feComposite in2="hardAlpha" operator="out"/>
<feColorMatrix type="matrix" values="0 0 0 0 0 0 0 0 0 0 0 0 0 0 0 0 0 0 0.05 0"/>
<feBlend mode="normal" in2="effect2_dropShadow_1_5" result="effect3_dropShadow_1_5"/>
<feBlend mode="normal" in="SourceGraphic" in2="effect3_dropShadow_1_5" result="shape"/>
</filter>
<linearGradient id="paint0_linear_1_5" x1="12" y1="34" x2="44" y2="2" gradientUnits="userSpaceOnUse">
<stop stop-color="#6366F1"/>
<stop offset="0.5" stop-color="#8B5CF6"/>
<stop offset="1" stop-color="#FBBF24"/>
</linearGradient>
</defs>
</svg>
